<svg xmlns="http://www.w3.org/2000/svg" viewBox="0 0 1200 820" role="img" aria-labelledby="title desc">
  <title id="title">Panel digital de NexoComunidad</title>
  <desc id="desc">Ilustracion de un tablero administrativo con indicadores, miembros y finanzas.</desc>
  <defs>
    <linearGradient id="bg" x1="0" x2="1" y1="0" y2="1">
      <stop offset="0" stop-color="#f7fbf8"/>
      <stop offset="1" stop-color="#dfeee6"/>
    </linearGradient>
    <linearGradient id="screen" x1="0" x2="1" y1="0" y2="1">
      <stop offset="0" stop-color="#ffffff"/>
      <stop offset="1" stop-color="#eef5f1"/>
    </linearGradient>
    <filter id="shadow" x="-20%" y="-20%" width="140%" height="140%">
      <feDropShadow dx="0" dy="24" stdDeviation="28" flood-color="#17201d" flood-opacity=".18"/>
    </filter>
  </defs>
  <rect width="1200" height="820" rx="38" fill="url(#bg)"/>
  <circle cx="1040" cy="130" r="88" fill="#f0b84b" opacity=".22"/>
  <circle cx="168" cy="704" r="118" fill="#137c72" opacity=".1"/>
  <g filter="url(#shadow)">
    <rect x="110" y="96" width="980" height="628" rx="28" fill="#26302c"/>
    <rect x="142" y="132" width="916" height="544" rx="18" fill="url(#screen)"/>
    <rect x="142" y="132" width="220" height="544" rx="18" fill="#17201d"/>
    <circle cx="196" cy="186" r="24" fill="#137c72"/>
    <rect x="234" y="174" width="78" height="12" rx="6" fill="#eaf2ee"/>
    <rect x="184" y="258" width="132" height="12" rx="6" fill="#9fb3aa"/>
    <rect x="184" y="308" width="116" height="12" rx="6" fill="#6f837a"/>
    <rect x="184" y="358" width="142" height="12" rx="6" fill="#6f837a"/>
    <rect x="184" y="408" width="94" height="12" rx="6" fill="#6f837a"/>
    <rect x="184" y="458" width="126" height="12" rx="6" fill="#6f837a"/>
    <rect x="402" y="180" width="228" height="126" rx="18" fill="#ffffff"/>
    <rect x="662" y="180" width="176" height="126" rx="18" fill="#ffffff"/>
    <rect x="870" y="180" width="144" height="126" rx="18" fill="#ffffff"/>
    <rect x="430" y="214" width="92" height="12" rx="6" fill="#7aa95c"/>
    <rect x="430" y="242" width="154" height="34" rx="8" fill="#dcead7"/>
    <rect x="690" y="214" width="76" height="12" rx="6" fill="#137c72"/>
    <rect x="690" y="242" width="104" height="34" rx="8" fill="#d9efec"/>
    <rect x="898" y="214" width="58" height="12" rx="6" fill="#f0b84b"/>
    <rect x="898" y="242" width="76" height="34" rx="8" fill="#f8e8c4"/>
    <rect x="402" y="338" width="364" height="258" rx="18" fill="#ffffff"/>
    <rect x="430" y="374" width="118" height="12" rx="6" fill="#17201d"/>
    <rect x="430" y="538" width="284" height="18" rx="9" fill="#edf2ef"/>
    <rect x="430" y="500" width="236" height="18" rx="9" fill="#edf2ef"/>
    <rect x="430" y="462" width="302" height="18" rx="9" fill="#edf2ef"/>
    <rect x="430" y="424" width="188" height="18" rx="9" fill="#edf2ef"/>
    <rect x="430" y="424" width="146" height="18" rx="9" fill="#137c72"/>
    <rect x="430" y="462" width="242" height="18" rx="9" fill="#7aa95c"/>
    <rect x="430" y="500" width="166" height="18" rx="9" fill="#f0b84b"/>
    <rect x="430" y="538" width="216" height="18" rx="9" fill="#26302c"/>
    <rect x="798" y="338" width="216" height="258" rx="18" fill="#ffffff"/>
    <circle cx="862" cy="418" r="34" fill="#d9efec"/>
    <circle cx="950" cy="418" r="34" fill="#dcead7"/>
    <circle cx="862" cy="514" r="34" fill="#f8e8c4"/>
    <circle cx="950" cy="514" r="34" fill="#e7ebe8"/>
    <rect x="834" y="376" width="150" height="12" rx="6" fill="#17201d"/>
  </g>
</svg>
